<mxfile host="app.diagrams.net" modified="2023-09-28T18:40:21.175Z" agent="Mozilla/5.0 (X11; Linux x86_64; rv:109.0) Gecko/20100101 Firefox/114.0" etag="GsexXBU2qql-ZnbN7o4W" version="22.0.0" type="github">
  <diagram name="Página-1" id="5rmpCkhPDLKvEJoNIAEf">
    <mxGraphModel dx="989" dy="548" grid="1" gridSize="10" guides="1" tooltips="1" connect="1" arrows="1" fold="1" page="1" pageScale="1" pageWidth="827" pageHeight="1169" math="0" shadow="0">
      <root>
        <mxCell id="0" />
        <mxCell id="1" parent="0" />
        <mxCell id="sU7L2L20VQvryZCdJbpg-7" style="edgeStyle=orthogonalEdgeStyle;rounded=0;orthogonalLoop=1;jettySize=auto;html=1;entryX=0;entryY=0.5;entryDx=0;entryDy=0;endArrow=none;endFill=0;" edge="1" parent="1" source="sU7L2L20VQvryZCdJbpg-1" target="sU7L2L20VQvryZCdJbpg-6">
          <mxGeometry relative="1" as="geometry" />
        </mxCell>
        <mxCell id="sU7L2L20VQvryZCdJbpg-9" style="edgeStyle=orthogonalEdgeStyle;rounded=0;orthogonalLoop=1;jettySize=auto;html=1;endArrow=none;endFill=0;" edge="1" parent="1" source="sU7L2L20VQvryZCdJbpg-1" target="sU7L2L20VQvryZCdJbpg-5">
          <mxGeometry relative="1" as="geometry" />
        </mxCell>
        <mxCell id="sU7L2L20VQvryZCdJbpg-27" style="edgeStyle=orthogonalEdgeStyle;rounded=0;orthogonalLoop=1;jettySize=auto;html=1;entryX=0.5;entryY=1;entryDx=0;entryDy=0;endArrow=none;endFill=0;" edge="1" parent="1" source="sU7L2L20VQvryZCdJbpg-1" target="sU7L2L20VQvryZCdJbpg-12">
          <mxGeometry relative="1" as="geometry" />
        </mxCell>
        <mxCell id="sU7L2L20VQvryZCdJbpg-28" style="edgeStyle=orthogonalEdgeStyle;rounded=0;orthogonalLoop=1;jettySize=auto;html=1;entryX=0.5;entryY=1;entryDx=0;entryDy=0;endArrow=none;endFill=0;" edge="1" parent="1" source="sU7L2L20VQvryZCdJbpg-1" target="sU7L2L20VQvryZCdJbpg-15">
          <mxGeometry relative="1" as="geometry">
            <Array as="points">
              <mxPoint x="260" y="260" />
              <mxPoint x="260" y="260" />
            </Array>
          </mxGeometry>
        </mxCell>
        <mxCell id="sU7L2L20VQvryZCdJbpg-36" style="edgeStyle=orthogonalEdgeStyle;rounded=0;orthogonalLoop=1;jettySize=auto;html=1;endArrow=none;endFill=0;" edge="1" parent="1" source="sU7L2L20VQvryZCdJbpg-1" target="sU7L2L20VQvryZCdJbpg-17">
          <mxGeometry relative="1" as="geometry">
            <Array as="points">
              <mxPoint x="400" y="280" />
            </Array>
          </mxGeometry>
        </mxCell>
        <mxCell id="sU7L2L20VQvryZCdJbpg-1" value="CAMIONERO" style="rounded=0;whiteSpace=wrap;html=1;fillColor=#dae8fc;strokeColor=#6c8ebf;" vertex="1" parent="1">
          <mxGeometry x="230" y="270" width="120" height="60" as="geometry" />
        </mxCell>
        <mxCell id="sU7L2L20VQvryZCdJbpg-49" style="edgeStyle=orthogonalEdgeStyle;rounded=0;orthogonalLoop=1;jettySize=auto;html=1;endArrow=none;endFill=0;" edge="1" parent="1" source="sU7L2L20VQvryZCdJbpg-2" target="sU7L2L20VQvryZCdJbpg-19">
          <mxGeometry relative="1" as="geometry">
            <Array as="points">
              <mxPoint x="610" y="350" />
              <mxPoint x="610" y="350" />
            </Array>
          </mxGeometry>
        </mxCell>
        <mxCell id="sU7L2L20VQvryZCdJbpg-51" style="edgeStyle=orthogonalEdgeStyle;rounded=0;orthogonalLoop=1;jettySize=auto;html=1;endArrow=none;endFill=0;" edge="1" parent="1" source="sU7L2L20VQvryZCdJbpg-2" target="sU7L2L20VQvryZCdJbpg-21">
          <mxGeometry relative="1" as="geometry">
            <Array as="points">
              <mxPoint x="780" y="320" />
            </Array>
          </mxGeometry>
        </mxCell>
        <mxCell id="sU7L2L20VQvryZCdJbpg-2" value="PAQUETES" style="rounded=0;whiteSpace=wrap;html=1;fillColor=#dae8fc;strokeColor=#6c8ebf;" vertex="1" parent="1">
          <mxGeometry x="570" y="270" width="120" height="60" as="geometry" />
        </mxCell>
        <mxCell id="sU7L2L20VQvryZCdJbpg-52" style="edgeStyle=orthogonalEdgeStyle;rounded=0;orthogonalLoop=1;jettySize=auto;html=1;endArrow=none;endFill=0;" edge="1" parent="1" source="sU7L2L20VQvryZCdJbpg-4" target="sU7L2L20VQvryZCdJbpg-22">
          <mxGeometry relative="1" as="geometry">
            <Array as="points">
              <mxPoint x="260" y="580" />
              <mxPoint x="260" y="580" />
            </Array>
          </mxGeometry>
        </mxCell>
        <mxCell id="sU7L2L20VQvryZCdJbpg-54" style="edgeStyle=orthogonalEdgeStyle;rounded=0;orthogonalLoop=1;jettySize=auto;html=1;entryX=0.5;entryY=0;entryDx=0;entryDy=0;endArrow=none;endFill=0;" edge="1" parent="1" source="sU7L2L20VQvryZCdJbpg-4" target="sU7L2L20VQvryZCdJbpg-23">
          <mxGeometry relative="1" as="geometry" />
        </mxCell>
        <mxCell id="sU7L2L20VQvryZCdJbpg-4" value="CAMIÓN" style="rounded=0;whiteSpace=wrap;html=1;fillColor=#dae8fc;strokeColor=#6c8ebf;" vertex="1" parent="1">
          <mxGeometry x="230" y="510" width="120" height="60" as="geometry" />
        </mxCell>
        <mxCell id="sU7L2L20VQvryZCdJbpg-10" style="edgeStyle=orthogonalEdgeStyle;rounded=0;orthogonalLoop=1;jettySize=auto;html=1;endArrow=none;endFill=0;" edge="1" parent="1" source="sU7L2L20VQvryZCdJbpg-5" target="sU7L2L20VQvryZCdJbpg-4">
          <mxGeometry relative="1" as="geometry" />
        </mxCell>
        <mxCell id="sU7L2L20VQvryZCdJbpg-61" style="edgeStyle=orthogonalEdgeStyle;rounded=0;orthogonalLoop=1;jettySize=auto;html=1;endArrow=none;endFill=0;" edge="1" parent="1" source="sU7L2L20VQvryZCdJbpg-5" target="sU7L2L20VQvryZCdJbpg-60">
          <mxGeometry relative="1" as="geometry" />
        </mxCell>
        <mxCell id="sU7L2L20VQvryZCdJbpg-5" value="conduce" style="rhombus;whiteSpace=wrap;html=1;fillColor=#d5e8d4;strokeColor=#82b366;" vertex="1" parent="1">
          <mxGeometry x="250" y="380" width="80" height="80" as="geometry" />
        </mxCell>
        <mxCell id="sU7L2L20VQvryZCdJbpg-8" style="edgeStyle=orthogonalEdgeStyle;rounded=0;orthogonalLoop=1;jettySize=auto;html=1;endArrow=none;endFill=0;" edge="1" parent="1" source="sU7L2L20VQvryZCdJbpg-6" target="sU7L2L20VQvryZCdJbpg-2">
          <mxGeometry relative="1" as="geometry" />
        </mxCell>
        <mxCell id="sU7L2L20VQvryZCdJbpg-6" value="distribuye" style="rhombus;whiteSpace=wrap;html=1;fillColor=#d5e8d4;strokeColor=#82b366;" vertex="1" parent="1">
          <mxGeometry x="423.5" y="260" width="80" height="80" as="geometry" />
        </mxCell>
        <mxCell id="sU7L2L20VQvryZCdJbpg-11" value="nombre" style="ellipse;whiteSpace=wrap;html=1;align=center;fillColor=#fff2cc;strokeColor=#d6b656;" vertex="1" parent="1">
          <mxGeometry x="90" y="180" width="60" height="30" as="geometry" />
        </mxCell>
        <mxCell id="sU7L2L20VQvryZCdJbpg-12" value="DNI" style="ellipse;whiteSpace=wrap;html=1;align=center;fontStyle=4;fillColor=#fff2cc;strokeColor=#d6b656;" vertex="1" parent="1">
          <mxGeometry x="30" y="180" width="50" height="30" as="geometry" />
        </mxCell>
        <mxCell id="sU7L2L20VQvryZCdJbpg-14" value="teléfono" style="ellipse;whiteSpace=wrap;html=1;align=center;fillColor=#fff2cc;strokeColor=#d6b656;" vertex="1" parent="1">
          <mxGeometry x="160" y="180" width="60" height="30" as="geometry" />
        </mxCell>
        <mxCell id="sU7L2L20VQvryZCdJbpg-15" value="dirección" style="ellipse;whiteSpace=wrap;html=1;align=center;fillColor=#fff2cc;strokeColor=#d6b656;" vertex="1" parent="1">
          <mxGeometry x="230" y="180" width="60" height="30" as="geometry" />
        </mxCell>
        <mxCell id="sU7L2L20VQvryZCdJbpg-16" value="&lt;div&gt;salario&lt;/div&gt;" style="ellipse;whiteSpace=wrap;html=1;align=center;fillColor=#fff2cc;strokeColor=#d6b656;" vertex="1" parent="1">
          <mxGeometry x="300" y="180" width="60" height="30" as="geometry" />
        </mxCell>
        <mxCell id="sU7L2L20VQvryZCdJbpg-17" value="población" style="ellipse;whiteSpace=wrap;html=1;align=center;fillColor=#fff2cc;strokeColor=#d6b656;" vertex="1" parent="1">
          <mxGeometry x="370" y="180" width="60" height="30" as="geometry" />
        </mxCell>
        <mxCell id="sU7L2L20VQvryZCdJbpg-18" value="código" style="ellipse;whiteSpace=wrap;html=1;align=center;fontStyle=4;fillColor=#fff2cc;strokeColor=#d6b656;" vertex="1" parent="1">
          <mxGeometry x="510" y="360" width="50" height="30" as="geometry" />
        </mxCell>
        <mxCell id="sU7L2L20VQvryZCdJbpg-19" value="descripción" style="ellipse;whiteSpace=wrap;html=1;align=center;fillColor=#fff2cc;strokeColor=#d6b656;" vertex="1" parent="1">
          <mxGeometry x="570" y="360" width="80" height="30" as="geometry" />
        </mxCell>
        <mxCell id="sU7L2L20VQvryZCdJbpg-50" style="edgeStyle=orthogonalEdgeStyle;rounded=0;orthogonalLoop=1;jettySize=auto;html=1;entryX=0.75;entryY=1;entryDx=0;entryDy=0;endArrow=none;endFill=0;" edge="1" parent="1" source="sU7L2L20VQvryZCdJbpg-20" target="sU7L2L20VQvryZCdJbpg-2">
          <mxGeometry relative="1" as="geometry" />
        </mxCell>
        <mxCell id="sU7L2L20VQvryZCdJbpg-20" value="&lt;div&gt;destinatario&lt;/div&gt;" style="ellipse;whiteSpace=wrap;html=1;align=center;fillColor=#fff2cc;strokeColor=#d6b656;" vertex="1" parent="1">
          <mxGeometry x="660" y="360" width="80" height="30" as="geometry" />
        </mxCell>
        <mxCell id="sU7L2L20VQvryZCdJbpg-21" value="&lt;div&gt;dirección&lt;/div&gt;&lt;div&gt;destinatario&lt;br&gt;&lt;/div&gt;" style="ellipse;whiteSpace=wrap;html=1;align=center;fillColor=#fff2cc;strokeColor=#d6b656;" vertex="1" parent="1">
          <mxGeometry x="745" y="355" width="70" height="45" as="geometry" />
        </mxCell>
        <mxCell id="sU7L2L20VQvryZCdJbpg-22" value="modelo" style="ellipse;whiteSpace=wrap;html=1;align=center;fillColor=#fff2cc;strokeColor=#d6b656;" vertex="1" parent="1">
          <mxGeometry x="220" y="610" width="80" height="30" as="geometry" />
        </mxCell>
        <mxCell id="sU7L2L20VQvryZCdJbpg-23" value="matrícula" style="ellipse;whiteSpace=wrap;html=1;align=center;fontStyle=4;fillColor=#fff2cc;strokeColor=#d6b656;" vertex="1" parent="1">
          <mxGeometry x="140" y="610" width="70" height="30" as="geometry" />
        </mxCell>
        <mxCell id="sU7L2L20VQvryZCdJbpg-24" value="tipo" style="ellipse;whiteSpace=wrap;html=1;align=center;fillColor=#fff2cc;strokeColor=#d6b656;" vertex="1" parent="1">
          <mxGeometry x="310" y="610" width="60" height="30" as="geometry" />
        </mxCell>
        <mxCell id="sU7L2L20VQvryZCdJbpg-25" value="potencia" style="ellipse;whiteSpace=wrap;html=1;align=center;fillColor=#fff2cc;strokeColor=#d6b656;" vertex="1" parent="1">
          <mxGeometry x="380" y="610" width="80" height="30" as="geometry" />
        </mxCell>
        <mxCell id="sU7L2L20VQvryZCdJbpg-32" style="edgeStyle=orthogonalEdgeStyle;rounded=0;orthogonalLoop=1;jettySize=auto;html=1;endArrow=none;endFill=0;" edge="1" parent="1" source="sU7L2L20VQvryZCdJbpg-1" target="sU7L2L20VQvryZCdJbpg-11">
          <mxGeometry relative="1" as="geometry">
            <Array as="points">
              <mxPoint x="115" y="290" />
            </Array>
          </mxGeometry>
        </mxCell>
        <mxCell id="sU7L2L20VQvryZCdJbpg-34" style="edgeStyle=orthogonalEdgeStyle;rounded=0;orthogonalLoop=1;jettySize=auto;html=1;entryX=0.833;entryY=0;entryDx=0;entryDy=0;entryPerimeter=0;endArrow=none;endFill=0;" edge="1" parent="1" source="sU7L2L20VQvryZCdJbpg-16" target="sU7L2L20VQvryZCdJbpg-1">
          <mxGeometry relative="1" as="geometry" />
        </mxCell>
        <mxCell id="sU7L2L20VQvryZCdJbpg-37" value="1:1" style="text;strokeColor=none;fillColor=none;spacingLeft=4;spacingRight=4;overflow=hidden;rotatable=0;points=[[0,0.5],[1,0.5]];portConstraint=eastwest;fontSize=12;whiteSpace=wrap;html=1;" vertex="1" parent="1">
          <mxGeometry x="370" y="300" width="40" height="30" as="geometry" />
        </mxCell>
        <mxCell id="sU7L2L20VQvryZCdJbpg-38" value="1:N" style="text;strokeColor=none;fillColor=none;spacingLeft=4;spacingRight=4;overflow=hidden;rotatable=0;points=[[0,0.5],[1,0.5]];portConstraint=eastwest;fontSize=12;whiteSpace=wrap;html=1;" vertex="1" parent="1">
          <mxGeometry x="515" y="300" width="40" height="30" as="geometry" />
        </mxCell>
        <mxCell id="sU7L2L20VQvryZCdJbpg-39" value="N:1" style="text;strokeColor=none;fillColor=none;spacingLeft=4;spacingRight=4;overflow=hidden;rotatable=0;points=[[0,0.5],[1,0.5]];portConstraint=eastwest;fontSize=12;whiteSpace=wrap;html=1;" vertex="1" parent="1">
          <mxGeometry x="450" y="230" width="40" height="30" as="geometry" />
        </mxCell>
        <mxCell id="sU7L2L20VQvryZCdJbpg-40" value="1:N" style="text;strokeColor=none;fillColor=none;spacingLeft=4;spacingRight=4;overflow=hidden;rotatable=0;points=[[0,0.5],[1,0.5]];portConstraint=eastwest;fontSize=12;whiteSpace=wrap;html=1;" vertex="1" parent="1">
          <mxGeometry x="250" y="350" width="40" height="30" as="geometry" />
        </mxCell>
        <mxCell id="sU7L2L20VQvryZCdJbpg-41" value="1:N" style="text;strokeColor=none;fillColor=none;spacingLeft=4;spacingRight=4;overflow=hidden;rotatable=0;points=[[0,0.5],[1,0.5]];portConstraint=eastwest;fontSize=12;whiteSpace=wrap;html=1;" vertex="1" parent="1">
          <mxGeometry x="250" y="470" width="40" height="30" as="geometry" />
        </mxCell>
        <mxCell id="sU7L2L20VQvryZCdJbpg-42" value="N:M" style="text;strokeColor=none;fillColor=none;spacingLeft=4;spacingRight=4;overflow=hidden;rotatable=0;points=[[0,0.5],[1,0.5]];portConstraint=eastwest;fontSize=12;whiteSpace=wrap;html=1;" vertex="1" parent="1">
          <mxGeometry x="210" y="405" width="40" height="30" as="geometry" />
        </mxCell>
        <mxCell id="sU7L2L20VQvryZCdJbpg-47" style="edgeStyle=orthogonalEdgeStyle;rounded=0;orthogonalLoop=1;jettySize=auto;html=1;entryX=0.613;entryY=0.078;entryDx=0;entryDy=0;entryPerimeter=0;endArrow=none;endFill=0;" edge="1" parent="1" source="sU7L2L20VQvryZCdJbpg-2" target="sU7L2L20VQvryZCdJbpg-18">
          <mxGeometry relative="1" as="geometry">
            <Array as="points">
              <mxPoint x="541" y="320" />
            </Array>
          </mxGeometry>
        </mxCell>
        <mxCell id="sU7L2L20VQvryZCdJbpg-53" style="edgeStyle=orthogonalEdgeStyle;rounded=0;orthogonalLoop=1;jettySize=auto;html=1;entryX=0.577;entryY=-0.048;entryDx=0;entryDy=0;entryPerimeter=0;endArrow=none;endFill=0;" edge="1" parent="1" source="sU7L2L20VQvryZCdJbpg-4" target="sU7L2L20VQvryZCdJbpg-25">
          <mxGeometry relative="1" as="geometry" />
        </mxCell>
        <mxCell id="sU7L2L20VQvryZCdJbpg-55" style="edgeStyle=orthogonalEdgeStyle;rounded=0;orthogonalLoop=1;jettySize=auto;html=1;entryX=0.916;entryY=0.964;entryDx=0;entryDy=0;entryPerimeter=0;endArrow=none;endFill=0;" edge="1" parent="1" source="sU7L2L20VQvryZCdJbpg-24" target="sU7L2L20VQvryZCdJbpg-4">
          <mxGeometry relative="1" as="geometry" />
        </mxCell>
        <mxCell id="sU7L2L20VQvryZCdJbpg-58" style="edgeStyle=orthogonalEdgeStyle;rounded=0;orthogonalLoop=1;jettySize=auto;html=1;entryX=0.379;entryY=1.067;entryDx=0;entryDy=0;entryPerimeter=0;endArrow=none;endFill=0;" edge="1" parent="1" source="sU7L2L20VQvryZCdJbpg-1" target="sU7L2L20VQvryZCdJbpg-14">
          <mxGeometry relative="1" as="geometry">
            <Array as="points">
              <mxPoint x="183" y="280" />
            </Array>
          </mxGeometry>
        </mxCell>
        <mxCell id="sU7L2L20VQvryZCdJbpg-60" value="fecha" style="ellipse;whiteSpace=wrap;html=1;align=center;fillColor=#fff2cc;strokeColor=#d6b656;" vertex="1" parent="1">
          <mxGeometry x="363.5" y="405" width="60" height="30" as="geometry" />
        </mxCell>
      </root>
    </mxGraphModel>
  </diagram>
</mxfile>
